# xmcd
#
# Track frame offsets:
#	150
#	23493
#	49463
#	72773
#	105219
#	123588
#	153442
#	173643
#	200405
#	226085
#	251515
#	279972
#	313916
#
# Disc length: 4669 seconds
# Revision: 0
# Processed by: cddbd v1.5.2PL0 Copyright (c) Steve Scherf et al.
# Submitted via: dBpowerAMP V12.0
#
DISCID=a4123b0d
DTITLE=Various Artist - Freestyle's Ultimate Collection: Volume 34
DYEAR=1992
DGENRE=Freestyle
TTITLE0=Laura Enea - Our Love
TTITLE1=The Latin Rascals - Disorderly Conduct (12" Club Mix)
TTITLE2=Debbie Deb - I'm Searchin'
TTITLE3=G.T. - I Need You (Club Mix)
TTITLE4=Timmy T - What Will I Do? (Dance Mix)
TTITLE5=Tony Moran - Dreamin' Of Making Love (The "DJ" Club Mix)
TTITLE6=Heidi Mathus (Kickin' Club Mix) - Tables Turn
TTITLE7=Marisol - Beginning Of The End
TTITLE8=Raiana Paige - You're My Only Man (Righteous Club Mix)
TTITLE9=Billy Ray - No More Tears (Club House)
TTITLE10=Freestyle Express - I Wanna Rock (John Jay's Freestyle Mix)
TTITLE11=Nadine Renee - To The Top (Extended Power Planet Version)
TTITLE12=Exposé - Let Me Be The One (Extended Remix)
EXTD=
EXTT0=
EXTT1=
EXTT2=
EXTT3=
EXTT4=
EXTT5=
EXTT6=
EXTT7=
EXTT8=
EXTT9=
EXTT10=
EXTT11=
EXTT12=
PLAYORDER=
